<mxfile host="app.diagrams.net" modified="2021-12-17T08:15:26.272Z" agent="5.0 (Macintosh; Intel Mac OS X 10_15_7) AppleWebKit/537.36 (KHTML, like Gecko) Chrome/93.0.4577.82 Safari/537.36" etag="byVAiCtXP7QLrKhXbstA" version="15.9.4" type="github">
  <diagram id="cojZr8byN8fDEDcUR9Kp" name="Page-1">
    <mxGraphModel dx="5438" dy="3917" grid="1" gridSize="10" guides="1" tooltips="1" connect="1" arrows="1" fold="1" page="1" pageScale="1" pageWidth="827" pageHeight="1169" math="0" shadow="0">
      <root>
        <mxCell id="0" />
        <mxCell id="1" parent="0" />
        <mxCell id="TPP2fMafFCoGg0tg1b9W-3" value="&lt;span style=&quot;font-size: 30px&quot;&gt;api-gateway&lt;/span&gt;" style="ellipse;shape=cloud;whiteSpace=wrap;html=1;" parent="1" vertex="1">
          <mxGeometry x="173" y="-150" width="482" height="230" as="geometry" />
        </mxCell>
        <mxCell id="TPP2fMafFCoGg0tg1b9W-4" value="" style="endArrow=classic;html=1;rounded=0;fontSize=30;" parent="1" edge="1">
          <mxGeometry width="50" height="50" relative="1" as="geometry">
            <mxPoint x="470" y="620" as="sourcePoint" />
            <mxPoint x="520" y="570" as="targetPoint" />
          </mxGeometry>
        </mxCell>
        <mxCell id="TPP2fMafFCoGg0tg1b9W-5" value="" style="endArrow=classic;html=1;rounded=0;fontSize=30;" parent="1" edge="1">
          <mxGeometry width="50" height="50" relative="1" as="geometry">
            <mxPoint x="480" y="630" as="sourcePoint" />
            <mxPoint x="530" y="580" as="targetPoint" />
          </mxGeometry>
        </mxCell>
        <mxCell id="TPP2fMafFCoGg0tg1b9W-6" value="" style="endArrow=classic;html=1;rounded=0;fontSize=30;" parent="1" edge="1">
          <mxGeometry width="50" height="50" relative="1" as="geometry">
            <mxPoint x="490" y="640" as="sourcePoint" />
            <mxPoint x="540" y="590" as="targetPoint" />
          </mxGeometry>
        </mxCell>
        <mxCell id="TPP2fMafFCoGg0tg1b9W-9" value="&lt;font style=&quot;font-size: 16px&quot;&gt;H5/MINIAPP&lt;br&gt;框架&lt;/font&gt;" style="rounded=1;whiteSpace=wrap;html=1;fontSize=20;" parent="1" vertex="1">
          <mxGeometry x="530" y="500" width="120" height="60" as="geometry" />
        </mxCell>
        <UserObject label="&lt;span style=&quot;font-size: 16px&quot;&gt;文档、规范&lt;/span&gt;" linkTarget="_blank" id="TPP2fMafFCoGg0tg1b9W-10">
          <mxCell style="rounded=1;whiteSpace=wrap;html=1;fontSize=20;" parent="1" vertex="1">
            <mxGeometry x="560" y="585" width="120" height="60" as="geometry" />
          </mxCell>
        </UserObject>
        <mxCell id="TPP2fMafFCoGg0tg1b9W-11" value="" style="shape=flexArrow;endArrow=classic;html=1;rounded=0;fontSize=16;" parent="1" edge="1">
          <mxGeometry width="50" height="50" relative="1" as="geometry">
            <mxPoint x="150" y="380" as="sourcePoint" />
            <mxPoint x="150" y="170" as="targetPoint" />
          </mxGeometry>
        </mxCell>
        <mxCell id="TPP2fMafFCoGg0tg1b9W-12" value="" style="shape=flexArrow;endArrow=classic;html=1;rounded=0;fontSize=16;" parent="1" edge="1">
          <mxGeometry width="50" height="50" relative="1" as="geometry">
            <mxPoint x="200" y="380" as="sourcePoint" />
            <mxPoint x="200" y="170" as="targetPoint" />
          </mxGeometry>
        </mxCell>
        <mxCell id="TPP2fMafFCoGg0tg1b9W-13" value="" style="shape=flexArrow;endArrow=classic;html=1;rounded=0;fontSize=16;strokeColor=none;" parent="1" edge="1">
          <mxGeometry width="50" height="50" relative="1" as="geometry">
            <mxPoint x="250" y="380" as="sourcePoint" />
            <mxPoint x="250" y="170" as="targetPoint" />
          </mxGeometry>
        </mxCell>
        <mxCell id="TPP2fMafFCoGg0tg1b9W-14" value="" style="shape=flexArrow;endArrow=classic;html=1;rounded=0;fontSize=16;" parent="1" edge="1">
          <mxGeometry width="50" height="50" relative="1" as="geometry">
            <mxPoint x="250" y="170" as="sourcePoint" />
            <mxPoint x="250" y="380" as="targetPoint" />
          </mxGeometry>
        </mxCell>
        <mxCell id="TPP2fMafFCoGg0tg1b9W-15" value="" style="shape=flexArrow;endArrow=classic;html=1;rounded=0;fontSize=16;" parent="1" edge="1">
          <mxGeometry width="50" height="50" relative="1" as="geometry">
            <mxPoint x="300" y="170" as="sourcePoint" />
            <mxPoint x="300" y="380" as="targetPoint" />
          </mxGeometry>
        </mxCell>
        <mxCell id="TPP2fMafFCoGg0tg1b9W-17" value="AJAX请求" style="text;html=1;strokeColor=none;fillColor=none;align=center;verticalAlign=middle;whiteSpace=wrap;rounded=0;fontSize=16;" parent="1" vertex="1">
          <mxGeometry x="173" y="430" width="100" height="30" as="geometry" />
        </mxCell>
        <mxCell id="TPP2fMafFCoGg0tg1b9W-20" value="" style="shape=flexArrow;endArrow=classic;html=1;rounded=0;fontSize=16;" parent="1" edge="1">
          <mxGeometry width="50" height="50" relative="1" as="geometry">
            <mxPoint x="554.75" y="380" as="sourcePoint" />
            <mxPoint x="554.75" y="280" as="targetPoint" />
          </mxGeometry>
        </mxCell>
        <mxCell id="TPP2fMafFCoGg0tg1b9W-22" value="Backend For Frontend" style="rounded=0;whiteSpace=wrap;html=1;fontSize=16;" parent="1" vertex="1">
          <mxGeometry x="460" y="160" width="230" height="110" as="geometry" />
        </mxCell>
        <mxCell id="TPP2fMafFCoGg0tg1b9W-23" value="" style="shape=flexArrow;endArrow=classic;html=1;rounded=0;fontSize=16;" parent="1" edge="1">
          <mxGeometry width="50" height="50" relative="1" as="geometry">
            <mxPoint x="599.25" y="280" as="sourcePoint" />
            <mxPoint x="599.25" y="380" as="targetPoint" />
          </mxGeometry>
        </mxCell>
        <mxCell id="TPP2fMafFCoGg0tg1b9W-25" value="" style="shape=flexArrow;endArrow=classic;html=1;rounded=0;fontSize=16;" parent="1" edge="1">
          <mxGeometry width="50" height="50" relative="1" as="geometry">
            <mxPoint x="510" y="140" as="sourcePoint" />
            <mxPoint x="510" y="80" as="targetPoint" />
          </mxGeometry>
        </mxCell>
        <mxCell id="TPP2fMafFCoGg0tg1b9W-26" value="AJAX请求" style="text;html=1;strokeColor=none;fillColor=none;align=center;verticalAlign=middle;whiteSpace=wrap;rounded=0;fontSize=16;" parent="1" vertex="1">
          <mxGeometry x="540" y="430" width="100" height="30" as="geometry" />
        </mxCell>
        <mxCell id="TPP2fMafFCoGg0tg1b9W-27" value="" style="shape=flexArrow;endArrow=classic;html=1;rounded=0;fontSize=16;" parent="1" edge="1">
          <mxGeometry width="50" height="50" relative="1" as="geometry">
            <mxPoint x="470" y="140" as="sourcePoint" />
            <mxPoint x="470" y="80" as="targetPoint" />
          </mxGeometry>
        </mxCell>
        <mxCell id="TPP2fMafFCoGg0tg1b9W-28" value="" style="shape=flexArrow;endArrow=classic;html=1;rounded=0;fontSize=16;" parent="1" edge="1">
          <mxGeometry width="50" height="50" relative="1" as="geometry">
            <mxPoint x="550" y="140" as="sourcePoint" />
            <mxPoint x="550" y="80" as="targetPoint" />
          </mxGeometry>
        </mxCell>
        <mxCell id="TPP2fMafFCoGg0tg1b9W-29" value="" style="shape=flexArrow;endArrow=classic;html=1;rounded=0;fontSize=16;" parent="1" edge="1">
          <mxGeometry width="50" height="50" relative="1" as="geometry">
            <mxPoint x="589.5" y="80" as="sourcePoint" />
            <mxPoint x="589.5" y="140" as="targetPoint" />
          </mxGeometry>
        </mxCell>
        <mxCell id="TPP2fMafFCoGg0tg1b9W-30" value="" style="shape=flexArrow;endArrow=classic;html=1;rounded=0;fontSize=16;" parent="1" edge="1">
          <mxGeometry width="50" height="50" relative="1" as="geometry">
            <mxPoint x="630" y="80" as="sourcePoint" />
            <mxPoint x="630" y="140" as="targetPoint" />
          </mxGeometry>
        </mxCell>
        <mxCell id="TPP2fMafFCoGg0tg1b9W-31" value="" style="shape=flexArrow;endArrow=classic;html=1;rounded=0;fontSize=16;" parent="1" edge="1">
          <mxGeometry width="50" height="50" relative="1" as="geometry">
            <mxPoint x="670" y="80" as="sourcePoint" />
            <mxPoint x="670" y="140" as="targetPoint" />
          </mxGeometry>
        </mxCell>
        <mxCell id="TPP2fMafFCoGg0tg1b9W-32" value="......" style="text;html=1;strokeColor=none;fillColor=none;align=center;verticalAlign=middle;whiteSpace=wrap;rounded=0;fontSize=16;" parent="1" vertex="1">
          <mxGeometry x="50" y="260" width="60" height="30" as="geometry" />
        </mxCell>
        <mxCell id="TPP2fMafFCoGg0tg1b9W-33" value="......" style="text;html=1;strokeColor=none;fillColor=none;align=center;verticalAlign=middle;whiteSpace=wrap;rounded=0;fontSize=16;" parent="1" vertex="1">
          <mxGeometry x="326" y="260" width="60" height="30" as="geometry" />
        </mxCell>
        <mxCell id="TPP2fMafFCoGg0tg1b9W-41" value="" style="ellipse;shape=cloud;whiteSpace=wrap;html=1;fontSize=16;" parent="1" vertex="1">
          <mxGeometry x="30" y="-350" width="120" height="80" as="geometry" />
        </mxCell>
        <mxCell id="TPP2fMafFCoGg0tg1b9W-42" value="" style="ellipse;shape=cloud;whiteSpace=wrap;html=1;fontSize=16;" parent="1" vertex="1">
          <mxGeometry x="240" y="-470" width="120" height="80" as="geometry" />
        </mxCell>
        <mxCell id="TPP2fMafFCoGg0tg1b9W-43" value="" style="ellipse;shape=cloud;whiteSpace=wrap;html=1;fontSize=16;" parent="1" vertex="1">
          <mxGeometry x="430" y="-320" width="120" height="80" as="geometry" />
        </mxCell>
        <mxCell id="TPP2fMafFCoGg0tg1b9W-44" value="" style="ellipse;shape=cloud;whiteSpace=wrap;html=1;fontSize=16;" parent="1" vertex="1">
          <mxGeometry x="620" y="-520" width="120" height="80" as="geometry" />
        </mxCell>
        <mxCell id="TPP2fMafFCoGg0tg1b9W-45" value="" style="ellipse;shape=cloud;whiteSpace=wrap;html=1;fontSize=16;" parent="1" vertex="1">
          <mxGeometry x="250" y="-320" width="120" height="80" as="geometry" />
        </mxCell>
        <mxCell id="TPP2fMafFCoGg0tg1b9W-46" value="" style="ellipse;shape=cloud;whiteSpace=wrap;html=1;fontSize=16;" parent="1" vertex="1">
          <mxGeometry x="53" y="-500" width="120" height="80" as="geometry" />
        </mxCell>
        <mxCell id="TPP2fMafFCoGg0tg1b9W-47" value="" style="ellipse;shape=cloud;whiteSpace=wrap;html=1;fontSize=16;" parent="1" vertex="1">
          <mxGeometry x="430" y="-490" width="120" height="80" as="geometry" />
        </mxCell>
        <mxCell id="TPP2fMafFCoGg0tg1b9W-48" value="" style="ellipse;shape=cloud;whiteSpace=wrap;html=1;fontSize=16;" parent="1" vertex="1">
          <mxGeometry x="655" y="-370" width="120" height="80" as="geometry" />
        </mxCell>
        <mxCell id="TPP2fMafFCoGg0tg1b9W-49" value="" style="strokeWidth=2;html=1;shape=mxgraph.flowchart.annotation_2;align=left;labelPosition=right;pointerEvents=1;fontSize=16;direction=north;" parent="1" vertex="1">
          <mxGeometry x="30" y="-215" width="760" height="65" as="geometry" />
        </mxCell>
        <mxCell id="TPP2fMafFCoGg0tg1b9W-50" value="&lt;font style=&quot;font-size: 24px&quot;&gt;microserver&lt;/font&gt;" style="text;html=1;strokeColor=none;fillColor=none;align=center;verticalAlign=middle;whiteSpace=wrap;rounded=0;fontSize=16;" parent="1" vertex="1">
          <mxGeometry x="310" y="-600" width="170" height="70" as="geometry" />
        </mxCell>
        <mxCell id="TPP2fMafFCoGg0tg1b9W-51" value="" style="swimlane;startSize=0;fontSize=24;" parent="1" vertex="1">
          <mxGeometry y="-610" width="830" height="1550" as="geometry" />
        </mxCell>
        <mxCell id="TPP2fMafFCoGg0tg1b9W-2" value="" style="shape=image;imageAspect=0;aspect=fixed;verticalLabelPosition=bottom;verticalAlign=top;image=data:image/svg+xml,PHN2ZyB4bWxucz0iaHR0cDovL3d3dy53My5vcmcvMjAwMC9zdmciIHdpZHRoPSI5NTUiIGhlaWdodD0iMzkyLjEyNzAxNDE2MDE1NjI1IiB2aWV3Qm94PSIyIDIgOTU1IDM5Mi4xMjcwMTQxNjAxNTYyNSIgZmlsbD0ibm9uZSI+JiN4YTs8cGF0aCBkPSJNNzggMzc0Qzc4LjM3ODYgMzQ3Ljg3OCA5NS42OTI1IDMyNy41NyAxMTIuMjIyIDMwOUMxMjkuODIzIDI4OS4yMjYgMTQ4LjA5NSAyNzAuMTgyIDE2OS41NTYgMjU0LjQ0NEMxODEuNzY5IDI0NS40ODggMTk2LjkxMyAyMzcuMTcxIDIxMS40NDQgMjMyLjc3OEMyMjYuMDA4IDIyOC4zNzUgMjQxLjc1NiAyMjUuMjEgMjU1LjQ0NCAyMTguNTU2QzI3MC44IDIxMS4wOTEgMjg1Ljg0MyAyMDAuNzgyIDI5OSAxODkuNzc4QzMxMC4zMzkgMTgwLjI5NCAzMTkuMzI1IDE2Ny42NzUgMzI5Ljc3OCAxNTcuMjIyQzMzNC43NDMgMTUyLjI1NyAzMzkuMDU3IDE0Ni45NDMgMzQ0IDE0MkMzNDYuNjM1IDEzOS4zNjUgMzQ4LjgyIDEzNC41OSAzNTIgMTMzIiBzdHJva2U9ImJsYWNrIiBzdHJva2Utd2lkdGg9IjMiIHN0cm9rZS1saW5lY2FwPSJyb3VuZCIvPiYjeGE7PHBhdGggZD0iTTM1MSAxMzNDMzczLjg5NSAxMTkuMDQgMzgyIDg3Ljc3MzUgMzgyIDYyLjVDMzgyIDU5LjM1MDIgMzgxLjY4NSA1OS4zMTg5IDM4NC41IDU5Ljk0NDRDMzg3LjA5NCA2MC41MjA5IDM5MC4zNTQgNjAgMzkzIDYwQzM5Ni41NDUgNjAgMzk5Ljg4MSA2MSA0MDMuNSA2MUM0MDguNzU3IDYxIDQxNC4yMjggNTYuNTQ0OSA0MTguNjExIDU0QzQzMi41NDEgNDUuOTExOSA0NDUuMTI0IDM2LjY3MTEgNDU3LjU1NiAyNi41QzQ2MS41OCAyMy4yMDc1IDQ2NC4wNiAxOS4yNzU2IDQ2Ny41NTYgMTUuNUM0NzEuMjE1IDExLjU0NzUgNDc4LjI3NiA3LjE3MTM3IDQ4MCAyIiBzdHJva2U9ImJsYWNrIiBzdHJva2Utd2lkdGg9IjMiIHN0cm9rZS1saW5lY2FwPSJyb3VuZCIvPiYjeGE7PHBhdGggZD0iTTQ4MCAyQzQ5NC45NSAxMi45MTU4IDUwOC4zNzUgMjYuNDgyMSA1MTkuOTQ0IDQwLjk0NDRDNTIyLjY1OCA0NC4zMzY1IDUyNC4zMzcgNDguODY3MyA1MjcgNTJDNTMxLjMwMSA1Ny4wNjAxIDUzNi4xOCA2MS4xOCA1NDAuODg5IDY1Ljg4ODlDNTQzLjU5MyA2OC41OTMgNTQ3Ljc3IDczLjM4NTIgNTUxIDc1IiBzdHJva2U9ImJsYWNrIiBzdHJva2Utd2lkdGg9IjMiIHN0cm9rZS1saW5lY2FwPSJyb3VuZCIvPiYjeGE7PHBhdGggZD0iTTU1MSA3NUM1NTEgODguNTc3MyA1NDkuNTYgMTAzLjA1NCA1NTEuNjExIDExNi41QzU1My4yOTEgMTI3LjUxMyA1NjEuMDIxIDE0MC41MjEgNTY4LjIyMiAxNDlDNTc5LjAzNyAxNjEuNzM0IDU5MS4xMTcgMTczLjc0NSA2MDUgMTgzIiBzdHJva2U9ImJsYWNrIiBzdHJva2Utd2lkdGg9IjMiIHN0cm9rZS1saW5lY2FwPSJyb3VuZCIvPiYjeGE7PHBhdGggZD0iTTYwNSAxODNDNjI1LjE1MiAxODMuMjggNjQyLjIxNiAxOTEuMjMgNjYwIDIwMC4yMjJDNjgxLjg5NyAyMTEuMjk0IDcwMi44NzMgMjI1LjM1NSA3MjEuNzc4IDI0MUM3MzIuNTM0IDI0OS45MDEgNzQzLjI3MiAyNTguODA3IDc1My43NzggMjY4Qzc1OS40MDIgMjcyLjkyMSA3NjMuMTk0IDI3OS4xMzkgNzY4IDI4NC43NzhDNzc2LjEwOSAyOTQuMjkgNzg0LjU2NCAzMDMuODUxIDc5MS4yMjIgMzE0LjQ0NEM3OTIuNTE0IDMxNi41IDgwNC4xMSAzMzMuNzggODA1IDMzMiIgc3Ryb2tlPSJibGFjayIgc3Ryb2tlLXdpZHRoPSIzIiBzdHJva2UtbGluZWNhcD0icm91bmQiLz4mI3hhOzxwYXRoIGQ9Ik04MDUgMzMyLjQ4MkM4MTguMzkzIDM1Ny4wMzIgODQzLjE1IDM3NS4yNDEgODYzLjA3NiAzOTQuMTI3IiBzdHJva2U9ImJsYWNrIiBzdHJva2Utd2lkdGg9IjMiIHN0cm9rZS1saW5lY2FwPSJyb3VuZCIvPiYjeGE7PHBhdGggZD0iTTIgMTExQzUxLjUzNyAxMTEgMTAxLjA3NCAxMTEgMTUwLjYxMSAxMTFDMTY0LjcxMSAxMTEgMTc3Ljk0NSAxMTUuODI3IDE5MS43NzggMTE2QzE5Ni43NTcgMTE2LjA2MiAyMDEuOTkyIDExNi40MSAyMDYuOTQ0IDExNS44ODlDMjEyLjkgMTE1LjI2MiAyMTguMTI1IDExMS4zOCAyMjMuNSAxMDkuMDU2QzIyOS4yMiAxMDYuNTgyIDIzNS4wMDQgMTA0LjQ3OSAyNDAuMjIyIDEwMUMyNDIuNjg5IDk5LjM1NTIgMjQ1LjM5NiA5Ni41NDQ3IDI0OC41NTYgOTguNTU1NkMyNTYuNTk2IDEwMy42NzIgMjcxLjYyNSAxMDQuOTE0IDI4MC41IDEwMS41QzI4OC45NTcgOTguMjQ3MiAzMDAuOTg0IDEwMi43NjggMzA5LjU1NiAxMDNDMzE4LjM5NiAxMDMuMjM5IDMyOC4xMzQgMTAzLjQ3IDMzNS43NzggMTA4QzM0NC43NTYgMTEzLjMyIDM1OC4wMTEgMTEwIDM2OCAxMTAiIHN0cm9rZT0iIzM1NkRDMCIgc3Ryb2tlLXdpZHRoPSIzIiBzdHJva2UtbGluZWNhcD0icm91bmQiLz4mI3hhOzxwYXRoIGQ9Ik01NTAgMTExQzU3OC40MjYgMTExIDYwNi44NTIgMTExIDYzNS4yNzggMTExQzY0NC44MzYgMTExIDY1NC42OTMgMTExLjYzNSA2NjQuMjIyIDExMC43NzhDNjk1LjA4NSAxMDggNzI2LjM3OCAxMDIuMDIyIDc1NS43NzggOTIuMjIyMkM3NjIuMDU2IDkwLjEyOTQgNzY5Ljc2OSA4NyA3NzYuNSA4N0M3ODEuNDQ3IDg3IDc4Ni41MzUgOTguMDQ0NSA3ODggMTAyQzc5Mi44MjUgMTE1LjAyOCA3OTcuODEzIDEyNC4zODQgODEyLjY2NyAxMjQuOTQ0QzgyNi4wODkgMTI1LjQ1MSA4MzkuODEyIDEyNS42NjcgODUzIDEyM0M4NjEuNzA0IDEyMS4yNCA4NzAuOTQzIDEyMC42NjMgODc5LjUgMTE4LjQ0NEM4ODkuNjQ5IDExNS44MTMgOTAwLjAzMSAxMTYgOTEwLjUgMTE2QzkyMi41NCAxMTYgOTM0LjAyNSAxMjMgOTQ2IDEyMyIgc3Ryb2tlPSIjMzU2REMwIiBzdHJva2Utd2lkdGg9IjMiIHN0cm9rZS1saW5lY2FwPSJyb3VuZCIvPiYjeGE7PHBhdGggZD0iTTk0MSAxMjNIOTU3IiBzdHJva2U9IiMzNTZEQzAiIHN0cm9rZS13aWR0aD0iMyIgc3Ryb2tlLWxpbmVjYXA9InJvdW5kIi8+JiN4YTs8L3N2Zz4=;" parent="TPP2fMafFCoGg0tg1b9W-51" vertex="1">
          <mxGeometry x="-1.0200000000000007" y="1210" width="830.05" height="340" as="geometry" />
        </mxCell>
        <mxCell id="TPP2fMafFCoGg0tg1b9W-34" value="脚手架" style="rounded=1;whiteSpace=wrap;html=1;fontSize=16;" parent="TPP2fMafFCoGg0tg1b9W-51" vertex="1">
          <mxGeometry x="340" y="1320" width="100" height="40" as="geometry" />
        </mxCell>
        <mxCell id="TPP2fMafFCoGg0tg1b9W-35" value="物料市场" style="rounded=1;whiteSpace=wrap;html=1;fontSize=16;" parent="TPP2fMafFCoGg0tg1b9W-51" vertex="1">
          <mxGeometry x="266" y="1380" width="100" height="40" as="geometry" />
        </mxCell>
        <mxCell id="TPP2fMafFCoGg0tg1b9W-36" value="基础插件" style="rounded=1;whiteSpace=wrap;html=1;fontSize=16;" parent="TPP2fMafFCoGg0tg1b9W-51" vertex="1">
          <mxGeometry x="420" y="1380" width="100" height="40" as="geometry" />
        </mxCell>
        <mxCell id="TPP2fMafFCoGg0tg1b9W-37" value="*自动化部署" style="rounded=1;whiteSpace=wrap;html=1;fontSize=16;" parent="TPP2fMafFCoGg0tg1b9W-51" vertex="1">
          <mxGeometry x="130" y="1450" width="100" height="40" as="geometry" />
        </mxCell>
        <mxCell id="TPP2fMafFCoGg0tg1b9W-38" value="*单元测试" style="rounded=1;whiteSpace=wrap;html=1;fontSize=16;" parent="TPP2fMafFCoGg0tg1b9W-51" vertex="1">
          <mxGeometry x="270" y="1450" width="100" height="40" as="geometry" />
        </mxCell>
        <mxCell id="TPP2fMafFCoGg0tg1b9W-39" value="*私有NPM库" style="rounded=1;whiteSpace=wrap;html=1;fontSize=16;" parent="TPP2fMafFCoGg0tg1b9W-51" vertex="1">
          <mxGeometry x="410" y="1450" width="100" height="40" as="geometry" />
        </mxCell>
        <mxCell id="TPP2fMafFCoGg0tg1b9W-40" value="配置中台" style="rounded=1;whiteSpace=wrap;html=1;fontSize=16;" parent="TPP2fMafFCoGg0tg1b9W-51" vertex="1">
          <mxGeometry x="550" y="1450" width="100" height="40" as="geometry" />
        </mxCell>
        <mxCell id="TPP2fMafFCoGg0tg1b9W-56" value="BFF" style="swimlane;fontSize=24;" parent="1" vertex="1">
          <mxGeometry x="830" width="830" height="2000" as="geometry">
            <mxRectangle x="830" width="80" height="30" as="alternateBounds" />
          </mxGeometry>
        </mxCell>
        <mxCell id="TPP2fMafFCoGg0tg1b9W-57" value="&lt;h1&gt;BFF层介绍&lt;/h1&gt;&lt;p style=&quot;line-height: 1.4&quot;&gt;特点：&lt;/p&gt;&lt;p style=&quot;line-height: 1.4&quot;&gt;对前端页面&lt;font color=&quot;#ff6666&quot;&gt;屏蔽数据处理&lt;/font&gt;细节，对后端服务&lt;font color=&quot;#ff6666&quot;&gt;屏蔽页面渲染&lt;/font&gt;细节，属于是对前后端分离的进一步深化。&lt;/p&gt;&lt;p style=&quot;line-height: 1.4&quot;&gt;优势：&lt;/p&gt;&lt;p style=&quot;line-height: 1.4&quot;&gt;接口聚合提高前端请求性能，收束非交互渲染逻辑，前端开发主观能动性更强。&lt;/p&gt;&lt;p style=&quot;line-height: 1.4&quot;&gt;缺陷：&lt;/p&gt;&lt;p style=&quot;line-height: 1.4&quot;&gt;前端开发招聘门槛有所提升，前端工作量明显增加，前后端工作界限模糊。&lt;/p&gt;" style="text;html=1;strokeColor=none;fillColor=none;spacing=5;spacingTop=-20;whiteSpace=wrap;overflow=hidden;rounded=0;fontSize=24;" parent="TPP2fMafFCoGg0tg1b9W-56" vertex="1">
          <mxGeometry x="20" y="40" width="790" height="530" as="geometry" />
        </mxCell>
        <mxCell id="R4r_WGwriTaLFbUzEP-O-2" value="&lt;h1&gt;落地方案简述&lt;/h1&gt;&lt;p style=&quot;line-height: 1.4&quot;&gt;&lt;b&gt;自建NodeJs服务：&lt;/b&gt;&lt;/p&gt;&lt;p style=&quot;line-height: 1.4&quot;&gt;使用&lt;font color=&quot;#ff6666&quot;&gt;nestjs&lt;/font&gt;框架进行node服务开发，nestjs是基于typescript开发的 类Spring node服务框架。它对typescript的支持相当完备，且约束了模块化的开发模式，而且开源社区十分活跃不需担心框架后续迭代的问题。&lt;/p&gt;&lt;p style=&quot;line-height: 1.4&quot;&gt;优势：&lt;/p&gt;&lt;p style=&quot;line-height: 1.4&quot;&gt;1. 可维护公共资源&lt;/p&gt;&lt;p style=&quot;line-height: 1.4&quot;&gt;2. 前端团队可维护完整的中间层服务&lt;/p&gt;&lt;p style=&quot;line-height: 1.4&quot;&gt;缺陷：&lt;/p&gt;&lt;p style=&quot;line-height: 1.4&quot;&gt;1. 无法单模块发布&lt;/p&gt;&lt;p style=&quot;line-height: 1.4&quot;&gt;2. 需要关心服务稳定性&lt;/p&gt;&lt;p style=&quot;line-height: 1.4&quot;&gt;&lt;b&gt;云函数：&lt;/b&gt;&lt;/p&gt;&lt;p style=&quot;line-height: 1.4&quot;&gt;使用各大云厂商提供的serverless云函数服务，每个云函数十分独立。与上述自建node服务不同，每个云函数是自闭环的，可以独立发布，各函数间毫无影响，对业务的稳定性较有帮助，且云函数支持动态扩容，不需要关心服务器的任何配置。&lt;/p&gt;&lt;p style=&quot;line-height: 1.4&quot;&gt;优势：&lt;/p&gt;&lt;p style=&quot;line-height: 1.4&quot;&gt;1. 只需关心函数本身，较容易上手&lt;/p&gt;&lt;p style=&quot;line-height: 1.4&quot;&gt;2. 可独立发布&lt;/p&gt;&lt;p style=&quot;line-height: 1.4&quot;&gt;3. 不需关心函数部署与扩容，云厂商提供了配套的解决方案&lt;/p&gt;&lt;p style=&quot;line-height: 1.4&quot;&gt;缺陷：&lt;/p&gt;&lt;p style=&quot;line-height: 1.4&quot;&gt;1. 函数间十分割裂，无法共享资源&lt;/p&gt;&lt;p style=&quot;line-height: 1.4&quot;&gt;2. 函数本身无状态，无法做数据缓存&lt;/p&gt;&lt;p style=&quot;line-height: 1.4&quot;&gt;3. 函数创建较为繁琐，且函数数量多了之后不好维护(需要运维侧大力配合)&lt;/p&gt;" style="text;html=1;strokeColor=none;fillColor=none;spacing=5;spacingTop=-20;whiteSpace=wrap;overflow=hidden;rounded=0;fontSize=24;" parent="TPP2fMafFCoGg0tg1b9W-56" vertex="1">
          <mxGeometry x="20" y="630" width="790" height="1330" as="geometry" />
        </mxCell>
        <mxCell id="R4r_WGwriTaLFbUzEP-O-4" value="脚手架" style="swimlane;fontSize=24;" parent="1" vertex="1">
          <mxGeometry x="-830" width="830" height="1170" as="geometry" />
        </mxCell>
        <mxCell id="R4r_WGwriTaLFbUzEP-O-7" value="&lt;h1&gt;H5脚手架简介&lt;/h1&gt;&lt;p style=&quot;line-height: 1.4&quot;&gt;为大部分前端同事提供“&lt;font color=&quot;#ff6666&quot;&gt;&lt;b&gt;最佳实践&lt;/b&gt;&lt;/font&gt;”，并且提供完备的文档以及规范，确保后续开发都在约束范围内进行。&lt;/p&gt;&lt;p style=&quot;line-height: 1.4&quot;&gt;屏蔽&lt;b&gt;&lt;font color=&quot;#ff6666&quot;&gt;工程化、基础设施、项目模板选择&lt;/font&gt;&lt;/b&gt;等“噪音”，让前端同事可以用最快的速度开始业务开发。&lt;/p&gt;" style="text;html=1;strokeColor=none;fillColor=none;spacing=5;spacingTop=-20;whiteSpace=wrap;overflow=hidden;rounded=0;fontSize=24;" parent="R4r_WGwriTaLFbUzEP-O-4" vertex="1">
          <mxGeometry x="17" y="40" width="783" height="290" as="geometry" />
        </mxCell>
        <mxCell id="R4r_WGwriTaLFbUzEP-O-8" value="&lt;h1&gt;落地方案简述&lt;/h1&gt;&lt;p style=&quot;line-height: 1.4&quot;&gt;前端团队的H5技术栈为Vue3.0，通过对Vue提供的&lt;a href=&quot;https://cli.vuejs.org/zh/&quot;&gt;Vue-cli&lt;/a&gt;工具进行二次开发，产出团队内自用的H5脚手架。&lt;/p&gt;&lt;p style=&quot;line-height: 1.4&quot;&gt;需要二次开发的内容：&lt;/p&gt;&lt;p style=&quot;line-height: 1.4&quot;&gt;1. 应对各业务的初始化模板&lt;/p&gt;&lt;p style=&quot;line-height: 1.4&quot;&gt;2. 模板内集成团队基础设施 -- 通过插件的形式&lt;/p&gt;&lt;p style=&quot;line-height: 1.4&quot;&gt;3. 工程化逻辑 -- 代码检查、打包、部署指令&lt;/p&gt;" style="text;html=1;strokeColor=none;fillColor=none;spacing=5;spacingTop=-20;whiteSpace=wrap;overflow=hidden;rounded=0;fontSize=24;" parent="R4r_WGwriTaLFbUzEP-O-4" vertex="1">
          <mxGeometry x="10" y="330" width="790" height="420" as="geometry" />
        </mxCell>
        <mxCell id="R4r_WGwriTaLFbUzEP-O-9" value="&lt;h1&gt;小程序脚手架&lt;/h1&gt;&lt;p style=&quot;line-height: 1.4&quot;&gt;特性、作用与上述H5基本一致，主要目标还是为了屏蔽技术细节，为开发提效。&lt;/p&gt;&lt;p style=&quot;line-height: 1.4&quot;&gt;目前小程序脚手架基本完成，基础插件的开发需在&lt;font color=&quot;#ff6666&quot;&gt;&lt;b&gt;前后端协议商讨后&lt;/b&gt;&lt;/font&gt;才可进入开发阶段。&lt;/p&gt;&lt;p style=&quot;line-height: 1.4&quot;&gt;工程化相关的开发仍需继续，目前产出分环境发布脚本，可以用于后续接入自动部署系统。&lt;/p&gt;" style="text;html=1;strokeColor=none;fillColor=none;spacing=5;spacingTop=-20;whiteSpace=wrap;overflow=hidden;rounded=0;fontSize=24;" parent="R4r_WGwriTaLFbUzEP-O-4" vertex="1">
          <mxGeometry x="10" y="750" width="800" height="390" as="geometry" />
        </mxCell>
        <mxCell id="R4r_WGwriTaLFbUzEP-O-10" value="资产市场" style="swimlane;fontSize=24;" parent="1" vertex="1">
          <mxGeometry y="940" width="830" height="1530" as="geometry" />
        </mxCell>
        <mxCell id="R4r_WGwriTaLFbUzEP-O-11" value="&lt;h1&gt;物料市场简介&lt;/h1&gt;&lt;p style=&quot;line-height: 1.4&quot;&gt;物料市场包括以下几个层级：&lt;/p&gt;&lt;p style=&quot;line-height: 1.4&quot;&gt;&lt;b&gt;&lt;font color=&quot;#ff6666&quot;&gt;UI组件、业务组件、模块和模板&lt;/font&gt;&lt;/b&gt;。&lt;/p&gt;&lt;p style=&quot;line-height: 1.4&quot;&gt;UI组件：&lt;/p&gt;&lt;p style=&quot;line-height: 1.4&quot;&gt;有基础功能但无业务功能的UI组件，例：按钮、输入框、列表等。它可能是针对市面已有的UI组件库的二次开发，也可能是按设计团队规范自主开发的UI组件库，这需要和设计团队进行充分的沟通。&lt;/p&gt;&lt;p style=&quot;line-height: 1.4&quot;&gt;如果是使用市面UI库有以下选择：&lt;/p&gt;&lt;p style=&quot;line-height: 1.4&quot;&gt;VantUI&amp;nbsp; --&amp;nbsp; 有赞&lt;/p&gt;&lt;p style=&quot;line-height: 1.4&quot;&gt;TaroUl&amp;nbsp; --&amp;nbsp; 京东&lt;/p&gt;&lt;p style=&quot;line-height: 1.4&quot;&gt;业务组件：&lt;/p&gt;&lt;p style=&quot;line-height: 1.4&quot;&gt;拥有业务功能的组件，它可能是UI组件+业务逻辑的集合，也可能是纯业务的逻辑组件，可以理解为是UI组件的&lt;font color=&quot;#ff6666&quot;&gt;&lt;b&gt;高阶形态&lt;/b&gt;&lt;/font&gt;。它只会为模块或者模板服务，不会反过来为UI组件服务。&lt;/p&gt;&lt;p style=&quot;line-height: 1.4&quot;&gt;示例：&lt;/p&gt;&lt;p style=&quot;line-height: 1.4&quot;&gt;实名组件、订阅按钮......&lt;/p&gt;&lt;p style=&quot;line-height: 1.4&quot;&gt;模块：&lt;/p&gt;&lt;p style=&quot;line-height: 1.4&quot;&gt;UI组件与业务组件的集合，可以处理较为复杂的业务流程，与模板有一定重合的区域，但是其职责范围一定小于模板，模块的服务对象是模板，而模板的服务对象是页面。&lt;/p&gt;&lt;p style=&quot;line-height: 1.4&quot;&gt;示例：&lt;/p&gt;&lt;p style=&quot;line-height: 1.4&quot;&gt;动态表单模块&lt;/p&gt;&lt;p style=&quot;line-height: 1.4&quot;&gt;模板：&lt;/p&gt;&lt;p style=&quot;line-height: 1.4&quot;&gt;模板是资产的最大单位，它包含上述的所有层级，通过模板是可以生成完整页面的，然后再通过对生成的页面进行二次开发，进而匹配业务需求。&lt;/p&gt;&lt;p style=&quot;line-height: 1.4&quot;&gt;同时，模板一般都以复数的形式存在，通常用于初始化一个全新的项目。&lt;/p&gt;&lt;p style=&quot;line-height: 1.4&quot;&gt;示例：&lt;/p&gt;&lt;p style=&quot;line-height: 1.4&quot;&gt;项目初始化模板、营销活动页面模板......&lt;/p&gt;" style="text;html=1;strokeColor=none;fillColor=none;spacing=5;spacingTop=-20;whiteSpace=wrap;overflow=hidden;rounded=0;fontSize=24;" parent="R4r_WGwriTaLFbUzEP-O-10" vertex="1">
          <mxGeometry x="10" y="40" width="810" height="1480" as="geometry" />
        </mxCell>
        <mxCell id="R4r_WGwriTaLFbUzEP-O-15" value="基础插件" style="swimlane;fontSize=24;" parent="1" vertex="1">
          <mxGeometry x="-830" y="1170" width="830" height="880" as="geometry" />
        </mxCell>
        <mxCell id="R4r_WGwriTaLFbUzEP-O-16" value="&lt;h1&gt;基础插件简介&lt;/h1&gt;&lt;p style=&quot;line-height: 1.4&quot;&gt;H5与小程序的开发模式略有不同，所以需要的插件也不尽相同，下文将会简述两端公用以及特供的插件。&lt;/p&gt;&lt;p style=&quot;line-height: 1.4&quot;&gt;&lt;b&gt;两端公用插件：&lt;/b&gt;&lt;/p&gt;&lt;p style=&quot;line-height: 1.4&quot;&gt;1. 统一登录插件&lt;/p&gt;&lt;p style=&quot;line-height: 1.4&quot;&gt;2. 统一上报插件&lt;/p&gt;&lt;p style=&quot;line-height: 1.4&quot;&gt;&lt;b&gt;小程序基础插件：&lt;/b&gt;&lt;/p&gt;&lt;p style=&quot;line-height: 1.4&quot;&gt;1. 基于wx.request的统一请求插件&lt;/p&gt;&lt;p style=&quot;line-height: 1.4&quot;&gt;2. 基于小程序基础路由的统一路由插件&lt;/p&gt;&lt;p style=&quot;line-height: 1.4&quot;&gt;3. 基于小程序缓存API的统一存储插件&lt;/p&gt;&lt;p style=&quot;line-height: 1.4&quot;&gt;4. 基于Page/Component的页面/组件初始化插件&lt;/p&gt;&lt;p style=&quot;line-height: 1.4&quot;&gt;&lt;b&gt;H5基础插件：&lt;/b&gt;&lt;/p&gt;&lt;p style=&quot;line-height: 1.4&quot;&gt;1. 基于axios的统一请求插件&lt;/p&gt;&lt;p style=&quot;line-height: 1.4&quot;&gt;2. 基于vuex/storage的统一存储插件&lt;/p&gt;" style="text;html=1;strokeColor=none;fillColor=none;spacing=5;spacingTop=-20;whiteSpace=wrap;overflow=hidden;rounded=0;fontSize=24;" parent="R4r_WGwriTaLFbUzEP-O-15" vertex="1">
          <mxGeometry x="17" y="40" width="783" height="810" as="geometry" />
        </mxCell>
        <mxCell id="LaWmvfITs-U5r7UdRbeU-1" value="配置中台" style="swimlane;fontSize=24;" parent="1" vertex="1">
          <mxGeometry x="830" y="2000" width="830" height="670" as="geometry" />
        </mxCell>
        <mxCell id="LaWmvfITs-U5r7UdRbeU-2" value="&lt;h1&gt;配置中台&lt;/h1&gt;&lt;p style=&quot;line-height: 1.4&quot;&gt;集&lt;b&gt;&lt;font color=&quot;#ff6666&quot;&gt;表单可视化、数据存储、版本维护&lt;/font&gt;&lt;/b&gt;于一体的数据配置中台。&lt;/p&gt;&lt;p style=&quot;line-height: 1.4&quot;&gt;目前已有完整的解决方案，需要用到的资源：&lt;/p&gt;&lt;p style=&quot;line-height: 1.4&quot;&gt;1. 云服务器至少2核4G&lt;/p&gt;&lt;p style=&quot;line-height: 1.4&quot;&gt;2. Redis&lt;/p&gt;&lt;p style=&quot;line-height: 1.4&quot;&gt;3. MongoDB(如果PRD需要隔离则需要两个MongoDB地址)&lt;/p&gt;&lt;p style=&quot;line-height: 1.4&quot;&gt;技术栈：&lt;/p&gt;&lt;p style=&quot;line-height: 1.4&quot;&gt;1. 中台后端NodeJs，框架NestJs&lt;/p&gt;&lt;p style=&quot;line-height: 1.4&quot;&gt;2. 中台前端React(正在评估是否需要转换成Vue开发)&lt;/p&gt;&lt;p style=&quot;line-height: 1.4&quot;&gt;3. 中台数据读取服务Java或者NodeJs&lt;/p&gt;" style="text;html=1;strokeColor=none;fillColor=none;spacing=5;spacingTop=-20;whiteSpace=wrap;overflow=hidden;rounded=0;fontSize=24;" parent="LaWmvfITs-U5r7UdRbeU-1" vertex="1">
          <mxGeometry x="17" y="40" width="783" height="620" as="geometry" />
        </mxCell>
        <mxCell id="0lIIpM80aAEfrHi9KGEF-1" value="人力安排" style="swimlane;fontSize=24;" parent="1" vertex="1">
          <mxGeometry x="-830" y="2050" width="830" height="1020" as="geometry" />
        </mxCell>
        <mxCell id="0lIIpM80aAEfrHi9KGEF-2" value="&lt;h1&gt;前端开发人力预分配&lt;/h1&gt;&lt;p style=&quot;line-height: 1.4&quot;&gt;已确定的前端业务项目：&lt;/p&gt;&lt;p style=&quot;line-height: 1.4&quot;&gt;用户端&lt;/p&gt;&lt;p style=&quot;line-height: 1.4&quot;&gt;药师端&lt;/p&gt;&lt;p style=&quot;line-height: 1.4&quot;&gt;管理后端&lt;/p&gt;&lt;p style=&quot;line-height: 1.4&quot;&gt;&lt;br&gt;&lt;/p&gt;&lt;p style=&quot;line-height: 1.4&quot;&gt;需要额外投入人力开发的前端基础项目：&lt;/p&gt;&lt;p style=&quot;line-height: 1.4&quot;&gt;H5脚手架开发与维护&lt;/p&gt;&lt;p style=&quot;line-height: 1.4&quot;&gt;配置中台&lt;/p&gt;&lt;p style=&quot;line-height: 1.4&quot;&gt;基础插件&lt;/p&gt;&lt;p style=&quot;line-height: 1.4&quot;&gt;&lt;br&gt;&lt;/p&gt;&lt;p style=&quot;line-height: 1.4&quot;&gt;目前已明确的人员数量大概是&lt;font color=&quot;#ff6666&quot;&gt;&lt;b&gt;3名正职+N名外包&lt;/b&gt;&lt;/font&gt;，于是有如下预分配方案：&lt;br&gt;&lt;/p&gt;&lt;p style=&quot;line-height: 1.4&quot;&gt;每个前端业务项目都由一名正职进行项目进度把控，并配备1~N名前端外包(外包人力形成一个&lt;font color=&quot;#ff6666&quot;&gt;&lt;b&gt;人力共享池&lt;/b&gt;&lt;/font&gt; -- 入职培训以及规范落地尤为重要)。&lt;/p&gt;&lt;p style=&quot;line-height: 1.4&quot;&gt;除此之外每位正职员工还需至少&lt;font color=&quot;#ff6666&quot;&gt;&lt;b&gt;分配一半的人力&lt;/b&gt;&lt;/font&gt;进行前端基础项目的开发，前端基础项目的开发则由前端负责人主导，并输出排期表。&lt;/p&gt;" style="text;html=1;strokeColor=none;fillColor=none;spacing=5;spacingTop=-20;whiteSpace=wrap;overflow=hidden;rounded=0;fontSize=24;" parent="0lIIpM80aAEfrHi9KGEF-1" vertex="1">
          <mxGeometry x="17" y="40" width="783" height="960" as="geometry" />
        </mxCell>
      </root>
    </mxGraphModel>
  </diagram>
</mxfile>
